# xmcd
#
# Track frame offsets:
#	150
#	23727
#	44867
#	59462
#	86037
#	104460
#	134457
#	160215
#	183032
#
# Disc length: 2777 seconds
#
# Revision: 0
# Processed by: cddbd v1.5PL3 Copyright (c) Steve Scherf et al.
# Submitted via: dBpowerAMP V4.0
#
DISCID=790ad709
DTITLE=Zola Moon - earthquakes, thunder, and smiling lightining
DYEAR=2000
DGENRE=Blues
TTITLE0=Meatgrinder
TTITLE1=Doll House
TTITLE2=Camel Cash
TTITLE3=Lucky Me
TTITLE4=What's Left
TTITLE5=I Don't Think So
TTITLE6=Lover Man
TTITLE7=Same Old Story
TTITLE8=The Bottom
EXTD=
EXTT0=
EXTT1=
EXTT2=
EXTT3=
EXTT4=
EXTT5=
EXTT6=
EXTT7=
EXTT8=
PLAYORDER=
